<?xml version="1.0" standalone="no"?>
<!DOCTYPE svg PUBLIC "-//W3C//DTD SVG 20010904//EN"
 "http://www.w3.org/TR/2001/REC-SVG-20010904/DTD/svg10.dtd">
<svg version="1.0" xmlns="http://www.w3.org/2000/svg"
 width="200.000000pt" height="200.000000pt" viewBox="0 0 200.000000 200.000000"
 preserveAspectRatio="xMidYMid meet">

<g transform="translate(0.000000,200.000000) scale(0.100000,-0.100000)"
fill="#000000" stroke="none">
<path d="M655 1174 c-24 -24 -4 -73 31 -74 28 0 48 54 28 75 -20 19 -38 19
-59 -1z"/>
<path d="M480 1126 c0 -23 6 -38 17 -45 13 -7 14 -13 6 -23 -12 -15 -28 -66
-37 -115 -4 -25 -2 -33 9 -33 8 0 15 -9 15 -20 0 -11 5 -20 10 -20 6 0 10 6
10 13 0 9 3 8 9 -2 10 -16 31 -6 31 15 0 33 54 -2 58 -38 2 -22 -1 -26 -13
-21 -12 4 -15 13 -11 29 4 14 2 24 -4 24 -21 0 -10 -48 16 -65 l25 -16 -3 33
c-3 28 2 35 26 49 37 20 48 45 17 36 -11 -3 -23 -1 -27 4 -3 5 -16 2 -29 -7
-27 -18 -30 -14 -40 46 -7 42 -6 44 10 30 15 -13 20 -11 46 18 38 42 38 64 0
28 -23 -23 -33 -26 -48 -17 -37 19 -47 39 -29 56 9 9 16 20 16 24 0 16 -27 39
-52 45 -26 6 -28 4 -28 -28z m164 -215 c3 -5 0 -11 -8 -14 -15 -6 -26 1 -26
15 0 11 27 10 34 -1z"/>
<path d="M812 1128 c-17 -17 -15 -34 5 -53 16 -16 15 -18 -8 -36 -32 -24 -38
-24 -71 8 -35 34 -37 15 -2 -27 19 -22 32 -29 46 -24 18 5 19 3 13 -28 -3 -18
-9 -41 -11 -50 -4 -12 0 -18 10 -18 8 0 16 -8 18 -17 4 -23 49 -25 56 -1 2 10
11 18 19 18 9 0 13 7 10 18 -3 9 -11 41 -17 70 -7 28 -16 55 -21 58 -15 9 -10
21 11 27 14 4 18 10 13 24 -15 43 -46 56 -71 31z"/>
<path d="M116 1024 c-25 -24 -18 -97 10 -108 15 -6 44 19 44 37 0 7 -5 4 -11
-5 -14 -26 -26 -22 -37 11 -8 22 -7 34 4 48 11 15 15 16 23 4 5 -7 14 -10 20
-6 9 5 9 10 0 21 -15 18 -34 18 -53 -2z"/>
<path d="M202 1028 c-17 -17 -15 -93 3 -108 13 -10 19 -10 35 5 11 10 20 23
20 29 0 6 -7 3 -14 -6 -20 -27 -33 -22 -41 18 -7 41 7 66 27 46 16 -16 28 -15
28 2 0 8 -7 17 -16 20 -22 8 -28 8 -42 -6z"/>
<path d="M278 1034 c-7 -7 5 -124 13 -124 5 0 9 9 9 20 0 11 6 20 14 20 7 0
19 7 26 15 15 18 30 11 30 -14 0 -33 25 -44 51 -22 13 11 20 23 16 28 -5 4
-13 0 -18 -10 -13 -23 -29 -22 -29 2 0 10 9 21 20 24 23 6 27 39 6 56 -16 14
-42 5 -51 -16 -5 -14 -7 -15 -18 -1 -10 14 -62 30 -69 22z m56 -30 c8 -20 -1
-34 -20 -34 -8 0 -14 8 -14 18 0 33 23 44 34 16z m76 2 c0 -8 -4 -17 -9 -21
-12 -7 -24 12 -16 25 9 15 25 12 25 -4z"/>
<path d="M1700 1025 c7 -8 17 -15 22 -15 6 0 5 7 -2 15 -7 8 -17 15 -22 15 -6
0 -5 -7 2 -15z"/>
<path d="M1293 1009 c4 -13 7 -45 7 -71 0 -54 17 -66 22 -15 3 34 22 36 25 2
0 -11 1 -26 2 -32 1 -15 31 -18 31 -3 0 6 -5 10 -11 10 -6 0 -10 12 -9 28 3
45 1 52 -19 52 -11 0 -22 -6 -25 -12 -3 -7 -4 2 -3 21 1 22 -3 36 -12 39 -10
3 -12 -1 -8 -19z"/>
<path d="M922 1008 c-21 -21 -14 -57 13 -70 26 -12 31 -23 15 -33 -5 -3 -10
-1 -10 4 0 6 -4 11 -10 11 -5 0 -10 -7 -10 -16 0 -11 8 -14 28 -12 38 4 42 40
7 56 -17 8 -25 19 -23 30 4 20 39 23 46 3 3 -10 0 -12 -12 -8 -9 4 -16 1 -16
-5 0 -6 11 -8 30 -4 27 5 30 3 30 -18 0 -40 11 -56 36 -56 17 0 24 6 24 20 0
11 -7 20 -15 20 -8 0 -15 -5 -15 -11 0 -5 5 -7 10 -4 6 3 10 1 10 -4 0 -6 -7
-11 -15 -11 -10 0 -15 10 -15 30 0 18 6 33 15 36 8 4 15 10 15 15 0 5 -7 9
-15 9 -8 0 -15 7 -15 15 0 8 -4 15 -10 15 -5 0 -10 -7 -10 -15 0 -8 -4 -15 -9
-15 -5 0 -11 7 -15 15 -7 18 -47 20 -64 3z"/>
<path d="M1200 954 c0 -36 4 -64 10 -64 6 0 10 8 10 18 0 10 12 22 30 29 22 8
30 18 30 36 0 31 -17 45 -52 45 -28 0 -28 -1 -28 -64z m58 24 c-4 -29 -38 -38
-38 -10 0 22 8 32 27 32 9 0 13 -8 11 -22z"/>
<path d="M1434 955 c0 -43 3 -64 10 -62 6 2 10 11 10 20 -1 10 -2 37 -3 62 -2
70 -17 53 -17 -20z"/>
<path d="M1093 993 c-18 -6 -17 -79 0 -86 25 -10 38 9 35 48 -3 38 -12 48 -35
38z m27 -22 c0 -6 -4 -13 -10 -16 -5 -3 -10 1 -10 9 0 9 5 16 10 16 6 0 10 -4
10 -9z m0 -35 c0 -11 -19 -15 -25 -6 -3 5 1 10 9 10 9 0 16 -2 16 -4z"/>
<path d="M1482 988 c-17 -17 -15 -53 3 -68 21 -17 62 -4 68 22 11 41 -42 75
-71 46z m58 -35 c0 -22 -30 -27 -48 -9 -16 16 -16 18 2 31 21 16 46 4 46 -22z"/>
<path d="M1703 993 c-8 -3 -13 -21 -13 -43 0 -37 12 -51 38 -43 21 8 13 25 -8
18 -11 -4 -20 -2 -20 4 0 6 9 11 20 11 14 0 20 7 20 24 0 25 -15 36 -37 29z
m27 -22 c0 -6 -4 -13 -10 -16 -5 -3 -10 1 -10 9 0 9 5 16 10 16 6 0 10 -4 10
-9z"/>
<path d="M1761 958 c-1 -27 4 -48 9 -48 6 0 10 14 10 31 0 20 4 29 12 27 7 -3
12 -17 13 -33 0 -15 6 -30 14 -33 10 -3 12 0 8 12 -4 10 -7 31 -7 48 0 27 -3
30 -25 26 -13 -3 -26 0 -29 6 -2 6 -5 -10 -5 -36z"/>
<path d="M1852 988 c-17 -17 -15 -63 3 -78 12 -10 19 -10 27 -2 16 16 19 63 6
79 -13 16 -21 16 -36 1z m28 -23 c0 -8 -4 -15 -10 -15 -5 0 -10 7 -10 15 0 8
5 15 10 15 6 0 10 -7 10 -15z m0 -29 c0 -11 -19 -15 -25 -6 -3 5 1 10 9 10 9
0 16 -2 16 -4z"/>
<path d="M1389 985 c-8 -8 3 -85 12 -85 12 0 12 77 0 84 -4 3 -10 4 -12 1z"/>
<path d="M1570 946 c0 -49 17 -64 22 -19 2 14 9 28 15 31 9 2 11 -5 7 -27 -4
-20 -2 -31 5 -31 6 0 11 14 11 30 0 17 5 30 10 30 6 0 10 -16 10 -35 0 -22 5
-35 13 -35 10 0 12 11 8 43 -5 36 -9 42 -31 43 -14 0 -35 4 -47 8 -22 7 -23 5
-23 -38z"/>
<path d="M690 920 c0 -5 5 -10 10 -10 6 0 10 5 10 10 0 6 -4 10 -10 10 -5 0
-10 -4 -10 -10z"/>
</g>
</svg>
